<svg width="76" height="76" viewBox="0 0 76 76" fill="none" xmlns="http://www.w3.org/2000/svg">
<path opacity="0.22" d="M38.1292 43.7375C48.8076 43.7375 57.464 35.081 57.464 24.4027C57.464 13.7244 48.8076 5.0679 38.1292 5.0679C27.4509 5.0679 18.7945 13.7244 18.7945 24.4027C18.7945 35.081 27.4509 43.7375 38.1292 43.7375Z" fill="#FE2C54"/>
<path d="M16 20C18.7614 20 21 17.7614 21 15C21 12.2386 18.7614 10 16 10C13.2386 10 11 12.2386 11 15C11 17.7614 13.2386 20 16 20Z" stroke="#05060A" stroke-width="2" stroke-linecap="round" stroke-linejoin="round"/>
<path d="M28 14.4671C28 22.1562 16.0068 34 16.0068 34C16.0068 34 4 22.0985 4 14.4671C4.0086 12.8036 4.32743 11.1585 4.93792 9.6278C5.54841 8.09706 6.43834 6.71128 7.55586 5.55119C8.67337 4.39111 9.99612 3.47993 11.447 2.87076C12.8979 2.26159 14.4479 1.9666 16.0068 2.003C17.5645 1.96854 19.113 2.26496 20.5624 2.875C22.0117 3.48505 23.3328 4.39654 24.4489 5.55643C25.565 6.71632 26.4537 8.10144 27.0633 9.63121C27.673 11.161 27.9914 12.8048 28 14.4671V14.4671Z" stroke="#05060A" stroke-width="2" stroke-linecap="round" stroke-linejoin="round"/>
<path d="M60 60C62.7614 60 65 57.7614 65 55C65 52.2386 62.7614 50 60 50C57.2386 50 55 52.2386 55 55C55 57.7614 57.2386 60 60 60Z" stroke="#05060A" stroke-width="2" stroke-linecap="round" stroke-linejoin="round"/>
<path d="M72 54.6658C72 62.2767 60 74 60 74C60 74 48 62.2767 48 54.6658C48 51.3066 49.2643 48.085 51.5147 45.7097C53.7652 43.3344 56.8174 42 60 42C63.1826 42 66.2348 43.3344 68.4853 45.7097C70.7357 48.085 72 51.3066 72 54.6658Z" stroke="#05060A" stroke-width="2" stroke-linecap="round" stroke-linejoin="round"/>
<path d="M34.9497 14.6494C72.0439 2.9196 79.0044 22.684 41.9102 34.4281L35.9093 36.8629C-5.09477 49.8243 2.0949 72.5535 43.0703 59.592" stroke="#05060A" stroke-width="2" stroke-linecap="round" stroke-linejoin="round" stroke-dasharray="5.38 5.38"/>
</svg>
