<svg width="45" height="40" viewBox="0 0 45 40" fill="none" xmlns="http://www.w3.org/2000/svg">
<path d="M39.9989 23.0417C35.425 20.8544 28.0659 19.4616 21.3711 19.4616C17.2685 19.4616 14.7481 12.402 14.0457 7.77739L16.6985 3.29787C17.2932 2.29356 18.1413 1.46104 19.1588 0.882643C20.1763 0.304244 21.328 0 22.5 0C23.672 0 24.8237 0.304244 25.8412 0.882643C26.8587 1.46104 27.7068 2.29356 28.3015 3.29787L39.9989 23.0417ZM43.7536 29.3782L44.0678 29.9049C44.6706 30.9221 44.9921 32.0797 44.9999 33.2603C45.0076 34.441 44.7014 35.6027 44.1121 36.6276C43.5228 37.6526 42.6715 38.5044 41.6445 39.0966C40.6175 39.6889 39.4513 40.0005 38.2641 40H6.7337C5.54669 40.0001 4.38074 39.6882 3.35403 39.0958C2.32732 38.5034 1.47634 37.6515 0.88735 36.6266C0.298355 35.6018 -0.00771997 34.4402 0.000147948 33.2598C0.00801586 32.0793 0.329547 30.9219 0.932152 29.9049L11.0697 12.7993C12.0056 18.9594 15.8815 23.9255 21.3711 23.9255C27.5362 23.9255 36.4305 25.1218 43.7536 29.3782Z" fill="#3E82FC"/>
</svg>
